<svg xmlns="http://www.w3.org/2000/svg" version="1.1" x="0" y="0" viewBox="0 0 512 512" xml:space="preserve"><path d="M503.5 324.3H8.6c-4.7 0-8.5 3.8-8.5 8.5 0 98.8 80.4 179.2 179.2 179.2h153.6c98.8 0 179.2-80.4 179.2-179.2C512 328.1 508.2 324.3 503.5 324.3zM332.8 494.9h-153.6c-86.5 0-157.4-68.1-161.9-153.6h477.4C490.2 426.8 419.3 494.9 332.8 494.9z"/><path d="M435.2 119.5c0-0.6 0-1.2-0.1-2.2 -1.3-14.1-11-25.8-23.9-30.1l9.7-9.7c16.8-16.4 18.4-42.7 3.8-61.2 -15.7-19.1-44-21.8-63.1-6.1 -1.1 0.9-2.1 1.8-3.2 2.9l-10.5 10.6c-4.4-12.8-16-22.4-30.4-23.8 -18.9-1-34.9 13.5-35.9 32.3 0 0.6 0 1.2 0 1.9v13.1c-5-2.9-10.8-4.6-17-4.6 -0.6 0-1.2 0-2.2 0.1 -18.2 1.7-32.3 17.4-32 35.5v11.6c-5.1-3-11-4.5-17-4.6 -0.6 0-1.2 0-2.2 0.1 -18.3 1.7-32.3 17.4-32 35.5v126.5c0 4.7 3.8 8.5 8.5 8.5h145.1c18.8 0 34.1-15.3 34.1-34.1 0-6.2-1.7-12-4.6-17.1h11.5c18.3 0.5 34-13.7 35.7-32.3 0.4-6.9-1.4-13.5-4.7-19.1 7.7-0.9 14.8-4.2 20.3-9.8C431.6 137.2 435.2 128.7 435.2 119.5zM413.1 131.6c-3.2 3.2-7.5 5-12.1 5 0 0 0 0 0 0h-25.6c-4.7 0-8.5 3.8-8.5 8.5s3.8 8.5 8.5 8.5l0.9 0c9.4 0.5 16.6 8.6 16.2 17.6 -0.9 9.4-8.8 16.7-18.5 16.5h-41.2c-4.7 0-8.5 3.8-8.5 8.5s3.8 8.5 8.5 8.5c9.4 0 17.1 7.7 17.1 17.1s-7.7 17.1-17.1 17.1H196.3V120.8c-0.2-9.4 7.1-17.5 16.2-18.4l0.9 0c9.4 0 17 7.7 17 17v0.1c0 4.7 3.8 8.5 8.5 8.5 0 0 0 0 0 0 4.7 0 8.5-3.8 8.5-8.5v0V78.1c-0.2-9.4 7.1-17.5 16.2-18.4l0.9 0c9.4 0 17 7.7 17 17.1v0.1c0 4.7 3.8 8.5 8.5 8.5 0 0 0 0 0 0 4.7 0 8.5-3.8 8.5-8.5v0V34.2l0-0.9c0.5-9.4 8.4-16.6 17.6-16.2 9.4 0.9 16.7 9 16.5 18.6v7.1c0 3.5 2.1 6.6 5.3 7.9 3.2 1.3 6.9 0.6 9.3-1.9l23.1-23.5c0.6-0.6 1.3-1.2 2-1.8 11.8-9.7 29.3-8 38.9 3.7 9.1 11.5 8.1 28-2.5 38.3l-22.4 22.4c-2.4 2.4-3.2 6.1-1.9 9.3 1.3 3.2 4.4 5.3 7.9 5.3h7.1c0.2 0 0.3 0 0.5 0 9.3 0 17.2 7.2 18.1 16.2l0 0.9C418.1 124.1 416.4 128.4 413.1 131.6z"/><rect x="87.1" y="170.7" transform="matrix(0.7071 -0.7071 0.7071 0.7071 -51.7312 233.5161)" width="337.9" height="17.1"/><rect x="315.7" y="68.3" width="17.1" height="42.7"/><rect x="264.5" y="111" width="17.1" height="51.2"/><rect x="213.3" y="153.6" width="17.1" height="59.7"/><rect x="324.2" y="102.5" width="42.7" height="17.1"/><rect x="273" y="153.6" width="51.2" height="17.1"/><rect x="221.9" y="204.8" width="59.7" height="17.1"/><path d="M159.3 39.5c0 0 0 0 0-0.1 -12-18-36.5-22.9-54.5-10.9 -0.6 0.4-1.1 0.8-1.7 1.2l-3.1 2.3 -3-2.1C81.3 15.4 56.8 16 41.9 31.4c-7.3 7.5-11.2 17.5-11 28 0.2 10.5 4.5 20.3 12 27.5 2.2 2.1 4.6 4 7.3 5.5l7.2 5.6v4.4c0 23.5 19.1 42.7 42.7 42.7s42.7-19.1 42.7-42.7v-4.4l7.6-5.9C166.6 79.8 170.5 56.6 159.3 39.5zM139.8 78.6l-10.9 8.5c-2.1 1.6-3.3 4.1-3.3 6.7v8.5c0 14.1-11.5 25.6-25.6 25.6 -14.1 0-25.6-11.5-25.6-25.6v-8.5c0-2.6-1.2-5.1-3.3-6.7l-10.9-8.5c-0.3-0.3-0.7-0.5-1-0.7 -1.6-0.9-3.1-2-4.4-3.3 -4.3-4.1-6.7-9.6-6.8-15.6 -0.1-5.9 2.1-11.5 6.2-15.8 4.3-4.5 10.2-6.8 16-6.8 5.5 0 11.1 2.1 15.4 6.2 0.3 0.3 0.6 0.5 0.9 0.8l8.5 6.1c3 2.2 7.2 2.1 10.1-0.1l9-6.8c4.9-3.3 10.9-4.5 16.7-3.3 5.8 1.2 10.8 4.5 14.1 9.4C151.4 58.5 149.1 71.6 139.8 78.6z"/><rect x="187.7" y="8.5" width="17.1" height="17.1"/><rect x="238.9" y="281.6" width="17.1" height="17.1"/><path d="M460.8 51.2v17.1c9.4 0 17.1 7.7 17.1 17.1s-7.7 17.1-17.1 17.1v17.1c18.8 0 34.1-15.3 34.1-34.1C494.9 66.5 479.6 51.2 460.8 51.2z"/><rect x="17.1" y="128.1" width="17.1" height="17.1"/><rect x="0" y="93.9" width="17.1" height="17.1"/><path d="M332.8 273.1c-18.8 0-34.1 15.3-34.1 34.1h17.1c0-9.4 7.7-17.1 17.1-17.1 9.4 0 17.1 7.7 17.1 17.1h17.1C366.9 288.4 351.6 273.1 332.8 273.1z"/><path d="M102.4 196.3h-1.1C97.5 181.6 84.2 170.7 68.3 170.7s-29.3 10.9-33.1 25.6h-1.1c-18.8 0-34.1 15.3-34.1 34.1 0 18.8 15.3 34.1 34.1 34.1h68.3c18.8 0 34.1-15.3 34.1-34.1C136.5 211.6 121.2 196.3 102.4 196.3zM102.4 247.5H34.1c-9.4 0-17.1-7.7-17.1-17.1 0-9.4 7.7-17.1 17.1-17.1h8.5c4.7 0 8.5-3.8 8.5-8.5 0-9.4 7.7-17.1 17.1-17.1s17.1 7.7 17.1 17.1c0 4.7 3.8 8.5 8.5 8.5h8.5c9.4 0 17.1 7.7 17.1 17.1C119.5 239.8 111.8 247.5 102.4 247.5z"/><path d="M85.3 247.5H51.2c-4.7 0-8.5 3.8-8.5 8.5v34.1c0 4.7 3.8 8.5 8.5 8.5h34.1c4.7 0 8.5-3.8 8.5-8.5v-34.1C93.9 251.3 90.1 247.5 85.3 247.5zM76.8 281.6H59.7v-17.1h17.1V281.6z"/><path d="M452.3 221.9c-14.1 0-25.6 11.5-25.6 25.6s11.5 25.6 25.6 25.6c14.1 0 25.6-11.5 25.6-25.6S466.4 221.9 452.3 221.9zM452.3 256c-4.7 0-8.5-3.8-8.5-8.5 0-4.7 3.8-8.5 8.5-8.5s8.5 3.8 8.5 8.5C460.8 252.2 457 256 452.3 256z"/><path d="M452.3 187.8c-32.9 0-59.7 26.8-59.7 59.7s26.8 59.7 59.7 59.7c32.9 0 59.7-26.8 59.7-59.7S485.2 187.8 452.3 187.8zM452.3 290.2c-23.5 0-42.7-19.1-42.7-42.7 0-23.5 19.1-42.7 42.7-42.7 23.5 0 42.7 19.1 42.7 42.7C494.9 271 475.8 290.2 452.3 290.2z"/></svg>