<svg xmlns="http://www.w3.org/2000/svg" version="1.1" x="0" y="0" viewBox="0 0 50 50" xml:space="preserve"><path d="M11.9 49c2.9 0 5.6-1.1 7.7-3.2l9.2-9.2C30.9 34.5 32 31.8 32 28.9c0-4.8-3.1-9-7.7-10.4l-0.6 1.9C27.5 21.5 30 25 30 28.9c0 2.4-0.9 4.6-2.6 6.3l-9.2 9.2C16.5 46.1 14.3 47 11.9 47 7 47 3 43 3 38.1c0-2.4 0.9-4.6 2.6-6.3l9.2-9.2c0.3-0.3 0.6-0.6 0.9-0.8l-1.2-1.6c-0.4 0.3-0.8 0.6-1.1 1l-9.2 9.2C2.1 32.5 1 35.2 1 38.1 1 44.1 5.9 49 11.9 49zM38.1 1c-2.9 0-5.6 1.1-7.7 3.2l-9.2 9.2C19.1 15.5 18 18.2 18 21.1c0 5.2 3.7 9.7 8.8 10.7l0.4-2c-4.2-0.8-7.2-4.5-7.2-8.7 0-2.4 0.9-4.6 2.6-6.3l9.2-9.2C33.5 3.9 35.7 3 38.1 3 43 3 47 7 47 11.9c0 2.4-0.9 4.6-2.6 6.3l-9.2 9.2c-0.3 0.3-0.5 0.5-0.8 0.7l1.2 1.6c0.3-0.3 0.7-0.6 1-0.9l9.2-9.2C47.9 17.5 49 14.8 49 11.9 49 5.9 44.1 1 38.1 1z"/></svg>