<svg xmlns="http://www.w3.org/2000/svg" version="1.1" x="0" y="0" viewBox="0 0 512 512" xml:space="preserve"><path d="M262.8 494.9c-1.9-1.9-4.4-2.9-7.1-2.9 -2.6 0-5.2 1.1-7.1 2.9 -1.9 1.9-2.9 4.4-2.9 7.1s1.1 5.2 2.9 7.1c1.9 1.9 4.4 2.9 7.1 2.9 2.6 0 5.2-1.1 7.1-2.9 1.9-1.9 2.9-4.4 2.9-7.1S264.7 496.8 262.8 494.9z"/><path d="M458.6 327.1l-33.4-8V305.9c18.5-11.7 30.8-32.3 30.8-55.8v-37.3c0-36.4-29.6-66-66-66 -19.6 0-37.3 8.6-49.4 22.3 -10.6-36.7-44.5-63.6-84.6-63.6h0c-40.1 0-74.1 27-84.6 63.8 -12.1-13.7-29.8-22.4-49.5-22.4 -36.4 0-66 29.6-66 66v37.3c0 23.5 12.3 44.1 30.8 55.8v13.2l-33.4 8C22 334.6 0 362.4 0 394.8V462c0 5.5 4.5 10 10 10h80v30c0 5.5 4.5 10 10 10h109.7c5.5 0 10-4.5 10-10s-4.5-10-10-10h-44.6v-44c0-5.5-4.5-10-10-10 -5.5 0-10 4.5-10 10V492h-35.1v-45.1c0-33.9 23-63.1 56-71l49.2-11.8 31.6 72c1.6 3.6 5.2 6 9.2 6h0c4 0 7.6-2.3 9.2-6l31.6-71.9 49 11.7c33 7.9 56.1 37.1 56.1 71v11.2c-0.5 1.2-0.8 2.5-0.8 3.9s0.3 2.7 0.8 3.9V492h-34.9v-44c0-5.5-4.5-10-10-10 -5.5 0-10 4.5-10 10V492h-49c-5.5 0-10 4.5-10 10s4.5 10 10 10h113.8c5.5 0 10-4.5 10-10v-30H502c5.5 0 10-4.5 10-10v-67.2C512 362.4 490 334.6 458.6 327.1zM390 166.8c25.4 0 46 20.6 46 46v2.5 1h-28.6c-21.6 0-42.8-5.7-61.5-16.4C351.5 180.8 369.2 166.8 390 166.8zM344 248.4c0-1 0.1-26.9 0.1-26.9 19.7 9.7 41.3 14.7 63.3 14.7h28.6v13.8c0 25.4-20.6 46-46 46s-46-20.6-46-46V248.4zM188.1 193.4c0-37.5 30.5-68 68-68 37.5 0 68 30.5 68 68v1.3l-37.1-21.8c-4.2-2.5-9.6-1.5-12.7 2.2 -14.4 17.2-35.6 27.1-58 27.1H188.1V193.4zM76 215.3v-2.5c0-25.4 20.6-46 46-46 20.9 0 38.5 14 44.1 33.1 -18.7 10.8-39.9 16.4-61.5 16.4H76V215.3zM76 250.1v-13.8h28.6c22 0 43.7-5.1 63.4-14.8v28.5c0 25.4-20.6 46-46 46S76 275.4 76 250.1zM90 446.9V452H60v-44.4c0-5.5-4.5-10-10-10s-10 4.5-10 10V452H20v-57.2c0-23.1 15.7-42.9 38.1-48.3l31.7-7.6 20.7 49.6C97.5 404.6 90 425 90 446.9zM122 364.1l-15.2-36.4c0-0.2 0-0.5 0-0.7v-12.7c4.9 1.1 9.9 1.8 15.2 1.8 5.2 0 10.2-0.6 15.1-1.8v12.1c0 0.2 0 0.4 0 0.6 0 0.3 0 0.6 0.1 0.9L122 364.1zM161.3 356.4c-5.9 1.4-11.5 3.4-16.9 5.8l9.7-23.3 31.7 7.6c2.5 0.6 4.9 1.4 7.2 2.3L161.3 356.4zM211 335.6c-6.3-3.9-13.2-6.8-20.4-8.5l-33.5-8v-13.1c8.3-5.2 15.4-12.3 20.7-20.6 7.5 14.7 19.1 27.1 33.2 35.5V335.6zM280.9 350.4l-25 56.8 -25-56.9v-20.6c8 2.4 16.4 3.7 25.1 3.7 8.6 0 17-1.3 24.8-3.6V350.4zM256.1 313.3c-37.5 0-68-30.5-68-68v-23.1h28.1c25.5 0 49.7-10.1 67.6-27.9l40.2 23.6v29.8C322.8 284.1 292.8 313.3 256.1 313.3zM300.9 321h0c14.2-8.5 25.9-20.8 33.5-35.6 5.3 8.2 12.3 15.2 20.6 20.4v13.1l-33.5 8c-7.3 1.8-14.2 4.7-20.6 8.6V321zM350.4 356.4l-31.6-7.6c2.4-1 4.8-1.8 7.4-2.4l31.6-7.6 9.8 23.4C362.1 359.9 356.4 357.9 350.4 356.4zM374.9 328c0-0.4 0.1-0.7 0.1-1.1 0-0.1 0-0.2 0-0.3v-12.3c4.9 1.1 9.9 1.8 15.1 1.8 5.2 0 10.3-0.6 15.2-1.8v12.7c0 0.2 0 0.4 0 0.5l-15.3 36.6L374.9 328zM492 452h-20v-44.4c0-5.5-4.5-10-10-10 -5.5 0-10 4.5-10 10V452h-30.2v-5.1c0-21.9-7.5-42.2-20.4-58.3l20.8-49.7 31.8 7.6c22.4 5.4 38.1 25.2 38.1 48.3V452z"/><path d="M229.5 234.2c-1.9-1.9-4.4-2.9-7.1-2.9s-5.2 1.1-7.1 2.9 -2.9 4.4-2.9 7.1 1.1 5.2 2.9 7.1c1.9 1.9 4.4 2.9 7.1 2.9 2.6 0 5.2-1.1 7.1-2.9 1.9-1.9 2.9-4.4 2.9-7.1S231.4 236 229.5 234.2z"/><path d="M296.4 234.2c-1.9-1.9-4.4-2.9-7.1-2.9s-5.2 1.1-7.1 2.9 -2.9 4.4-2.9 7.1 1.1 5.2 2.9 7.1c1.9 1.9 4.4 2.9 7.1 2.9s5.2-1.1 7.1-2.9c1.9-1.9 2.9-4.4 2.9-7.1S298.3 236 296.4 234.2z"/><path d="M275.2 267.8c-3.9-3.9-10.2-3.9-14.1 0 -3 3-7.8 3-10.7 0 -3.9-3.9-10.2-3.9-14.1 0 -3.9 3.9-3.9 10.2 0 14.1 5.4 5.4 12.4 8.1 19.5 8.1 7.1 0 14.1-2.7 19.5-8.1C279.2 278.1 279.2 271.7 275.2 267.8z"/><path d="M413.5 54h-6.9c-5.5 0-10 4.5-10 10s4.5 10 10 10h6.9c5.5 0 10-4.5 10-10S419 54 413.5 54z"/><path d="M462 54h-6.9c-5.5 0-10 4.5-10 10s4.5 10 10 10H462c5.5 0 10-4.5 10-10S467.5 54 462 54z"/><path d="M434.3 74.8c-5.5 0-10 4.5-10 10v6.9c0 5.5 4.5 10 10 10 5.5 0 10-4.5 10-10v-6.9C444.3 79.3 439.8 74.8 434.3 74.8z"/><path d="M434.3 26.3c-5.5 0-10 4.5-10 10v6.9c0 5.5 4.5 10 10 10 5.5 0 10-4.5 10-10V36.3C444.3 30.8 439.8 26.3 434.3 26.3z"/><path d="M56.3 54h-6.9c-5.5 0-10 4.5-10 10s4.5 10 10 10h6.9c5.5 0 10-4.5 10-10S61.8 54 56.3 54z"/><path d="M104.8 54h-6.9c-5.5 0-10 4.5-10 10s4.5 10 10 10h6.9c5.5 0 10-4.5 10-10S110.3 54 104.8 54z"/><path d="M77.1 74.8c-5.5 0-10 4.5-10 10v6.9c0 5.5 4.5 10 10 10 5.5 0 10-4.5 10-10v-6.9C87.1 79.3 82.7 74.8 77.1 74.8z"/><path d="M77.1 26.3c-5.5 0-10 4.5-10 10v6.9c0 5.5 4.5 10 10 10 5.5 0 10-4.5 10-10V36.3C87.1 30.8 82.7 26.3 77.1 26.3z"/><path d="M256 38.1c-5.5 0-10 4.5-10 10v26.3c0 5.5 4.5 10 10 10 5.5 0 10-4.5 10-10v-26.3C266 42.6 261.5 38.1 256 38.1z"/><path d="M263.1 2.9C261.2 1.1 258.6 0 256 0s-5.2 1.1-7.1 2.9C247.1 4.8 246 7.4 246 10s1.1 5.2 2.9 7.1c1.9 1.9 4.4 2.9 7.1 2.9s5.2-1.1 7.1-2.9C264.9 15.2 266 12.6 266 10S264.9 4.8 263.1 2.9z"/><path d="M221 40.1l-14.6-14.6c-3.9-3.9-10.2-3.9-14.1 0 -3.9 3.9-3.9 10.2 0 14.1l14.6 14.6c2 2 4.5 2.9 7.1 2.9 2.6 0 5.1-1 7.1-2.9C224.9 50.4 224.9 44 221 40.1z"/><path d="M319.8 24.9c-3.9-3.9-10.2-3.9-14.1 0l-15.1 15.1c-3.9 3.9-3.9 10.2 0 14.1 2 2 4.5 2.9 7.1 2.9s5.1-1 7.1-2.9l15.1-15.1C323.7 35.2 323.7 28.8 319.8 24.9z"/></svg>
