<?xml version="1.0" encoding="UTF-8" standalone="no"?>
<svg
   xmlns:dc="http://purl.org/dc/elements/1.1/"
   xmlns:cc="http://creativecommons.org/ns#"
   xmlns:rdf="http://www.w3.org/1999/02/22-rdf-syntax-ns#"
   xmlns:svg="http://www.w3.org/2000/svg"
   xmlns="http://www.w3.org/2000/svg"
   xmlns:sodipodi="http://sodipodi.sourceforge.net/DTD/sodipodi-0.dtd"
   xmlns:inkscape="http://www.inkscape.org/namespaces/inkscape"
   version="1.1"
   id="svg465"
   width="393.41599"
   height="516.80267"
   viewBox="0 0 393.41599 516.80267"
   sodipodi:docname="serendipia_vector.svg"
   inkscape:version="1.0.2 (394de47547, 2021-03-26)">
  <metadata
     id="metadata471">
    <rdf:RDF>
      <cc:Work
         rdf:about="">
        <dc:format>image/svg+xml</dc:format>
        <dc:type
           rdf:resource="http://purl.org/dc/dcmitype/StillImage" />
        <dc:title></dc:title>
      </cc:Work>
    </rdf:RDF>
  </metadata>
  <defs
     id="defs469" />
  <sodipodi:namedview
     pagecolor="#ffffff"
     bordercolor="#666666"
     borderopacity="1"
     objecttolerance="10"
     gridtolerance="10"
     guidetolerance="10"
     inkscape:pageopacity="0"
     inkscape:pageshadow="2"
     inkscape:window-width="1366"
     inkscape:window-height="740"
     id="namedview467"
     showgrid="false"
     inkscape:zoom="1.0932606"
     inkscape:cx="196.708"
     inkscape:cy="258.40135"
     inkscape:window-x="108"
     inkscape:window-y="0"
     inkscape:window-maximized="1"
     inkscape:current-layer="g473"
     inkscape:document-rotation="0"
     scale-x="1"
     fit-margin-top="0"
     fit-margin-left="0"
     fit-margin-right="0"
     fit-margin-bottom="0" />
  <g
     inkscape:groupmode="layer"
     inkscape:label="Image"
     id="g473"
     transform="translate(-4.2757974,-85.471053)">
    <a
       id="a80">
      <path
         style="fill:#000000;stroke-width:0.8839"
         d="m 347.41687,566.49596 c -5.5836,-13.1143 -5.74389,-13.39003 -7.12328,-12.25476 -2.04937,1.68667 -3.3386,-0.0879 -3.39309,-4.67047 -0.0435,-3.65956 -0.4342,-4.58341 -5.31689,-12.57275 -6.04882,-9.89747 -7.15506,-13.04781 -4.94094,-14.07088 0.83118,-0.38405 1.64856,-0.43313 1.8164,-0.10902 0.16787,0.32409 2.06781,4.03437 4.22215,8.24506 4.72133,9.22791 6.13645,10.96795 7.62786,9.37924 2.15381,-2.2943 6.39259,-4.53308 8.88923,-4.69498 3.58796,-0.23268 6.98552,2.07459 7.57035,5.14102 0.62824,3.29405 -3.1789,12.88146 -6.25796,15.75921 l -2.46672,2.30545 3.12042,7.0025 c 3.84677,8.63256 4.65749,12.02147 3.13721,13.11393 -1.04963,0.75426 -1.77157,-0.56421 -6.88474,-12.57355 z m 4.02208,-18.3846 c 2.21114,-6.00971 1.48295,-8.65642 -2.31936,-8.43 -3.4799,0.20725 -8.35476,4.65335 -7.30682,6.66419 0.39361,0.75531 1.52666,2.97029 2.51782,4.92222 1.55135,3.05508 2.04013,3.43896 3.51247,2.75864 0.9496,-0.43877 2.549,-3.06975 3.59589,-5.91505 z m -56.31802,47.60789 c -3.25142,-1.19629 -4.6617,-9.75947 -2.9071,-17.65173 1.05055,-4.72539 2.72723,-6.91518 4.86053,-6.34794 2.10268,0.55909 2.56481,-1.47226 2.24729,-9.87858 -0.2873,-7.60688 0.25389,-9.76897 2.26048,-9.03069 1.65983,0.6107 2.31122,3.90881 2.62055,13.26839 0.10754,3.2537 0.97788,8.20967 1.9341,11.01325 2.2098,6.47897 3.71147,7.37983 7.76442,4.65788 2.54854,-1.71157 2.97275,-1.74945 3.6313,-0.32423 0.45985,0.99523 0.13937,2.1189 -0.83617,2.93176 -4.9853,4.15391 -8.95165,3.47111 -12.38825,-2.1326 l -2.12905,-3.47164 -0.76141,5.3612 c -0.64127,4.51523 -3.22992,11.35633 -4.52335,11.95398 -0.20108,0.0929 -0.99907,-0.0642 -1.77334,-0.34905 z m 2.94793,-14.48416 c 0.26438,-3.03661 0.16329,-5.63789 -0.22462,-5.78061 -1.20476,-0.44328 -2.73508,4.21109 -2.72546,8.2893 0.0203,8.60225 2.13965,6.80002 2.95008,-2.50869 z m 31.13874,-3.07276 c -0.58363,-0.56333 -3.03339,-5.56033 -5.44393,-11.10444 -3.84741,-8.84884 -4.22646,-10.19236 -3.10302,-10.99823 1.16316,-0.83434 1.69819,-0.0126 5.87054,9.01727 3.39563,7.34883 4.47968,10.47863 4.16416,12.02246 -0.36619,1.79162 -0.57687,1.94214 -1.48775,1.06294 z m -59.77631,23.11952 c -0.19948,-0.80649 0.55362,-2.22907 1.67362,-3.16129 6.33434,-5.27239 5.5305,-17.8538 -1.0482,-16.40588 -3.60215,0.79281 -6.82247,4.62347 -10.84204,12.8969 -5.0029,10.29742 -7.66578,9.37348 -8.56672,-2.97243 -0.24725,-3.38839 -0.93309,-6.63103 -1.52404,-7.20585 -1.22827,-1.19472 -0.19723,-3.26597 1.68822,-3.39142 1.75245,-0.11659 2.60315,2.09454 3.19363,8.30103 0.27773,2.91906 0.55211,5.40941 0.60973,5.53411 0.0576,0.12472 1.50444,-2.31492 3.21515,-5.4214 4.19841,-7.62394 6.32115,-9.78231 10.94946,-11.13323 8.62439,-2.51729 13.17305,7.18902 8.40615,17.93779 -1.97045,4.44314 -7.07964,7.75156 -7.75493,5.02166 z m -33.02748,-0.51208 c -15.7581,1.3651 -22.36007,-2.4695 -18.65101,-10.83297 4.2103,-9.49372 19.89944,-17.05032 20.78747,-10.01218 0.42487,3.36741 -3.19882,5.97113 -10.0521,7.22269 -5.62717,1.02765 -6.07106,1.23137 -7.43089,3.41037 -0.89984,1.442 -1.10516,3.05552 -0.54348,4.27112 1.0724,2.32089 6.52766,3.11248 15.7645,2.28751 3.75097,-0.33502 6.30446,-0.0709 6.86574,0.71022 1.1552,1.6076 -0.7065,2.42055 -6.74023,2.94324 z m 134.38902,-65.38064 c -7.87386,-8.6847 -14.20518,-16.95241 -13.8082,-18.03136 0.3072,-0.83495 0.8608,-1.12033 1.62665,-0.83857 1.36747,0.50313 13.60583,14.67295 14.67915,16.99582 0.80626,1.74493 -1.22967,3.27259 -2.4976,1.87408 z m -55.95721,11.60417 c -0.42266,-0.27956 -0.46656,-1.14101 -0.0975,-1.91435 0.50397,-1.05615 1.02033,-1.23932 2.07495,-0.73609 0.7722,0.3685 1.2762,1.01734 1.12,1.44189 -0.40718,1.10667 -2.19617,1.80469 -3.09745,1.20855 z m 63.83856,-31.75003 c -3.37752,-1.24268 -7.73674,-16.73331 -5.91376,-21.01602 0.68638,-1.61269 1.2062,-1.95396 2.46605,-1.61896 1.26801,0.33715 1.62387,0.0693 1.7302,-1.30237 0.20824,-2.6865 2.58463,-2.20377 5.48176,1.11351 3.34407,3.82909 6.27973,5.71956 7.79469,5.01955 0.65053,-0.30058 1.99766,-2.45662 2.99364,-4.79119 2.03392,-4.76751 3.28986,-5.80121 4.32543,-3.56004 0.78338,1.69541 -1.87666,8.40434 -4.32356,10.90449 -2.19209,2.2398 -5.80666,2.09772 -8.43943,-0.33173 l -2.13915,-1.97396 0.31589,2.21246 c 0.17374,1.21685 0.70502,3.63132 1.18059,5.36549 1.63099,5.94705 -1.40142,11.47661 -5.47238,9.97878 z m 2.22793,-9.45994 c -0.82917,-5.0764 -2.70917,-8.67927 -3.8935,-7.46166 -1.17928,1.2124 -0.42864,6.46108 1.53368,10.72405 1.2229,2.65713 1.53795,2.88568 2.16482,1.57201 0.40345,-0.84551 0.49121,-3.02099 0.195,-4.8344 z m -199.68397,90.40006 c -0.36205,-0.78356 0.95559,-5.6645 2.92812,-10.84652 1.97253,-5.18201 3.53379,-10.85189 3.46946,-12.59971 -0.13457,-3.65662 1.54471,-4.36584 3.3556,-1.41719 0.96208,1.56656 0.76048,3.44653 -0.89758,8.37266 l -2.13826,6.3525 5.95105,-2.74977 c 5.97836,-2.76239 17.12274,-5.20371 19.59766,-4.29308 0.90565,0.33322 1.16386,0.85171 0.84952,1.70599 -0.3143,0.85427 -2.48276,1.56031 -7.13477,2.32302 -9.21337,1.51061 -15.46132,4.5407 -19.70577,9.55679 -3.993,4.7189 -5.38686,5.51754 -6.27504,3.59534 z m 168.2351,-86.1593 c -1.37369,-1.33615 -0.10945,-3.70757 1.63448,-3.06593 0.98578,0.3627 1.24612,0.89543 0.96124,1.96693 -0.50582,1.90231 -1.38647,2.27516 -2.59569,1.09898 z m -180.73519,74.06816 c -2.57906,-0.48197 -6.41484,-1.4481 -8.52394,-2.14699 -12.63948,-4.18828 -12.42542,-12.74631 0.46657,-18.6532 6.40973,-2.93678 11.78658,-3.4666 14.48815,-1.4275 1.57781,1.19091 1.66158,1.68038 0.64213,3.75205 -1.5214,3.09175 -5.63331,4.19461 -11.73733,3.14809 -6.52476,-1.11866 -11.22959,1.79188 -9.37713,5.80095 0.95072,2.05753 12.44004,6.30231 17.68986,6.5356 3.2508,0.14444 4.81984,2.12118 2.52527,3.18141 -0.81641,0.37724 -3.59451,0.29155 -6.17358,-0.19041 z m 136.63248,-61.69354 c -0.96719,0.22478 -8.34896,2.07591 -16.4039,4.11361 -8.05495,2.03771 -15.46878,3.53577 -16.47516,3.32903 -1.67474,-0.34404 -1.72128,-0.70003 -0.54921,-4.20022 2.49709,-7.45723 1.57378,-10.16918 -3.5395,-10.39641 -3.98215,-0.17695 -5.82721,0.91068 -8.27955,4.88061 -3.058,4.95044 -8.331,10.09219 -13.37786,13.04487 -5.69836,3.33385 -11.77877,3.25075 -16.56884,-0.22646 -4.50101,-3.26736 -5.2801,-5.41545 -5.01868,-13.83749 0.18576,-5.98463 1.36216,-10.47361 6.64391,-25.35234 3.52999,-9.94403 6.78632,-20.76961 7.23628,-24.05684 0.44997,-3.28722 1.14391,-6.12731 1.54213,-6.31131 1.31413,-0.60721 9.53049,3.90772 14.02433,7.70649 3.52052,2.97596 4.95787,4.89936 7.08468,9.48043 2.40411,5.17831 2.58081,6.22375 1.78579,10.56454 l -0.88232,4.81753 3.55268,-1.14561 c 1.95397,-0.63008 5.49933,-1.79883 7.87855,-2.59723 6.47284,-2.17208 13.16586,-2.90837 16.9762,-1.86748 2.66428,0.72781 3.69303,1.57072 4.77509,3.91252 0.75856,1.64166 1.17292,3.93069 0.92082,5.08672 -0.63404,2.9074 0.0739,4.14158 3.59572,6.26841 3.51731,2.12411 9.91884,2.52196 13.55384,0.84236 4.34009,-2.00541 10.57528,-9.13278 19.57977,-22.38147 7.98501,-11.74871 9.00061,-13.76002 12.44633,-24.64931 3.74925,-11.84847 6.5028,-18.48321 7.94804,-19.151 3.87005,-1.78821 -20.7522,60.41436 -27.19912,68.71247 -4.26359,5.48788 -14.23795,11.78397 -21.25002,13.41358 z m -77.14592,27.14684 c -3.40267,-0.0231 -10.52,-1.95176 -22.34005,-6.05375 -10.06833,-3.49408 -18.70111,-5.91957 -20.57507,-5.78084 -15.81299,1.17072 -25.11972,-0.27556 -36.26608,-5.63578 -8.40322,-4.04105 -20.90224,-14.01491 -25.9695,-20.72294 -4.65144,-6.15756 -27.250614,-39.76209 -32.709134,-48.63785 -5.07684,-8.25512 -12.40709,-24.14833 -14.44729,-31.32412 -1.8276,-6.428 -3.78515,-18.55654 -3.15003,-19.51676 0.23613,-0.35697 2.52964,4.40559 5.09673,10.58346 7.85646,18.90721 24.069134,47.63609 43.763354,77.54874 11.14607,16.92928 15.60054,21.11753 27.57298,25.92523 10.04125,4.03221 18.42957,5.18283 38.52189,5.28402 6.93951,0.0349 9.79084,0.75408 25.90017,6.53219 9.95619,3.57111 19.33784,6.79646 20.84809,7.16746 3.05405,0.75021 3.12977,1.21515 0.53104,3.26085 -1.14062,0.8979 -3.58353,1.39176 -6.7771,1.37009 z m -95.70394,19.17264 c -7.9075,-0.84381 -17.48978,-5.49643 -16.55466,-8.03801 0.27782,-0.75511 3.26238,-0.0798 8.64994,1.95723 10.67802,4.03731 11.87968,3.59605 7.0135,-2.57537 -3.32797,-4.2206 -3.57829,-4.78886 -3.20837,-7.28368 0.39304,-2.65087 0.47272,-2.70858 3.9156,-2.83623 7.5219,-0.27891 13.82945,2.50713 12.68964,5.60501 -0.34812,0.94617 -1.38373,0.89535 -3.83504,-0.1882 -1.84697,-0.81642 -4.63512,-1.64031 -6.1959,-1.83087 -3.35315,-0.40941 -3.2684,0.0792 0.96965,5.59008 3.12517,4.0638 3.83414,8.28521 1.56574,9.32757 -0.78396,0.36029 -3.03853,0.48286 -5.0101,0.27247 z M 321.53478,433.33533 c -0.63157,-0.61431 -1.97492,-3.66454 -2.98522,-6.7783 -3.81815,-11.76752 -5.57163,-13.12763 -12.81168,-9.93751 -5.53178,2.43743 -8.64228,3.00273 -9.79224,1.77965 -0.49405,-0.52546 0.69509,-4.85204 2.75044,-10.0073 3.94062,-9.88392 4.92049,-15.10843 3.43775,-18.3296 l -0.95506,-2.07533 -6.0597,3.21694 c -10.30691,5.47164 -13.82528,4.247 -14.81817,-5.15779 -0.8495,-8.04652 -5.43139,-12.91677 -12.40742,-13.18829 -2.03262,-0.0791 -8.19567,1.23507 -13.82243,2.94746 -13.99491,4.25905 -19.09835,4.2127 -23.89877,-0.21699 -1.12215,-1.03519 -2.36532,-1.73197 -2.7628,-1.54831 -1.08617,0.50188 -2.07065,9.42942 -1.6535,14.99444 0.20224,2.698 2.23616,11.68954 4.51982,19.9812 3.12385,11.3422 4.13967,16.62066 4.10185,21.31404 -0.0592,7.34607 -2.69136,17.03071 -4.20161,15.45923 -0.53461,-0.55627 -3.6925,-6.06241 -7.01754,-12.23587 l -6.04554,-11.22443 -5.83666,-1.78545 c -7.862,-2.40499 -14.36754,-6.59084 -20.62874,-13.27312 -5.13268,-5.47787 -5.36474,-5.89118 -15.7057,-27.97368 -7.98493,-17.05139 -11.71035,-24.18063 -15.57177,-29.79934 -12.89653,-18.76564 -26.38026,-31.8426 -35.6663,-34.59035 -4.44101,-1.3141 -5.10441,-1.19053 -5.70345,1.06238 -0.33591,1.26333 0.3025,2.23927 3.04032,4.64771 3.46087,3.04451 3.46412,3.05122 2.42933,5.02098 -1.97366,3.75695 -1.04644,8.43709 3.71161,18.73443 5.35364,11.58638 5.24451,13.18712 -1.09897,16.11821 -6.1502,2.8418 -8.36485,7.65293 -5.93924,12.90246 1.09043,2.35988 3.90523,5.15512 10.27847,10.20697 9.68956,7.68062 10.01624,8.36009 6.29508,13.09343 -2.51723,3.20197 -3.23245,8.45016 -2.21307,16.23953 0.9438,7.21184 6.0873,18.70597 14.49474,32.39121 3.20324,5.21406 7.29061,12.64581 9.08306,16.51496 3.11588,6.7265 3.18966,7.11547 1.67725,8.87353 -2.25653,2.62304 -7.93601,3.24955 -12.03495,1.3276 -4.59626,-2.1551 -11.23459,-7.58909 -16.52223,-13.52472 -4.25473,-4.77614 -4.50015,-5.23731 -4.46198,-8.3846 0.10659,-8.78755 -2.90616,-12.62249 -11.90703,-15.15641 l -5.29384,-1.49031 -8.41064,-20.75543 C 87.717476,379.63409 82.465606,360.6546 79.757976,335.4995 c -0.89356,-8.30167 -2.04829,-16.01073 -2.56604,-17.13125 -1.81268,-3.92301 -4.09945,-0.62293 -4.42746,6.38935 -0.22728,4.85894 -1.52177,2.8518 -4.85999,-7.53551 l -2.66924,-8.30567 1.72789,-14.26359 c 1.7932,-14.80283 2.69666,-19.98018 3.27003,-18.73929 0.18453,0.39937 0.82247,3.69617 1.41765,7.32622 0.59517,3.63004 1.44793,6.84207 1.89504,7.13779 2.19495,1.45184 3.61991,-1.13736 4.17653,-7.58896 1.13903,-13.20191 2.23939,-18.03362 5.14481,-22.59106 3.93058,-6.16553 4.51638,-8.6072 3.09326,-12.89298 -1.4121,-4.25261 -4.22659,-6.75561 -14.80417,-13.1658 -3.67523,-2.22725 -7.758591,-5.03665 -9.074136,-6.24311 -3.226129,-2.95866 -5.286068,-7.75425 -4.587605,-10.68014 l 0.573068,-2.40063 6.523187,-0.17555 c 10.777186,-0.29002 31.289616,-3.1125 43.32531,-5.9615 6.22368,-1.47324 13.3849,-2.94197 15.91383,-3.26388 13.07968,-1.66489 26.22411,1.46821 31.23203,7.44444 4.13321,4.93239 6.52793,13.20482 8.15429,28.16862 1.72394,15.8616 2.85907,20.20969 6.37485,24.41889 3.3485,4.00892 10.55226,6.77676 13.76015,5.28692 6.53372,-3.03448 10.76619,-8.82223 11.10759,-15.18938 0.2035,-3.7953 -0.21129,-5.02363 -4.74011,-14.03718 -9.73078,-19.36679 -10.19493,-20.60229 -9.93771,-26.4523 0.51076,-11.61676 5.96252,-21.59314 16.47722,-30.15231 4.43261,-3.60824 8.03154,-5.62837 18.80976,-10.5582 12.22853,-5.59322 13.7974,-6.52348 19.01212,-11.27373 3.12607,-2.84762 10.39862,-10.80165 16.16124,-17.67561 14.49067,-17.28527 15.91335,-18.25876 14.23977,-9.74376 -0.98128,4.99269 -3.4136,9.29178 -10.95834,19.36873 -9.13837,12.20544 -11.07808,19.4581 -7.35752,27.51013 2.46085,5.32576 12.32418,21.43102 17.56157,28.67529 2.17667,3.01073 8.56503,11.67023 14.19633,19.24333 16.59118,22.31217 20.43751,28.47456 27.83055,44.58858 17.56243,38.27942 26.39876,76.97259 28.11785,123.1245 0.85439,22.93777 -0.74197,29.95703 -7.78416,34.22713 -2.72576,1.65278 -3.6332,1.84161 -4.55264,0.9473 z m 13.28271,-118.17496 c -0.46199,-0.8576 -6.39178,-11.70072 -13.17734,-24.0958 -12.96572,-23.68419 -27.48745,-53.97617 -24.07454,-50.2189 1.02791,1.13165 5.55821,9.11611 10.06736,17.74325 4.50913,8.62716 10.63202,20.0383 13.60643,25.35809 6.55369,11.72144 12.48831,24.48909 13.59886,29.25637 0.45055,1.93396 0.44118,2.81461 -0.0208,1.957 z M 67.361386,393.86585 c -1.88571,-0.51513 -3.638127,-1.39014 -3.89427,-1.94448 -0.620315,-1.34248 0.934481,-4.87778 2.454,-5.5799 1.50298,-0.69447 4.5996,1.87983 6.05804,5.03619 1.37404,2.9737 -0.0438,3.73767 -4.61777,2.48819 z m -7.974359,-15.4106 c -2.134654,-0.7854 -3.109613,-3.6987 -2.061735,-6.16074 0.515115,-1.2103 1.134487,-2.1121 1.376367,-2.00401 1.61533,0.72182 4.028505,3.17777 4.832843,4.91853 0.745449,1.6133 0.551972,2.24319 -0.894226,2.91144 -1.015016,0.46901 -2.478987,0.61961 -3.253249,0.33478 z M 56.76572,349.22902 c -1.518249,-1.47676 -3.131876,-9.69166 -3.023734,-15.39368 0.119581,-6.30452 2.376796,-11.70674 4.640012,-11.10496 2.867423,0.76244 3.240688,4.04528 1.624571,14.28805 -0.886075,5.61585 -1.382458,10.70536 -1.103073,11.31 0.675512,1.46194 -0.884848,2.11928 -2.137794,0.90055 z m 1.378725,-41.81501 C 56.398567,301.91844 55.337862,292.09256 55.214229,280.2698 55.000941,259.87311 52.096285,247.55541 46.107822,241.65244 34.083506,229.79979 26.059508,215.03696 16.325401,186.85772 12.989942,177.20194 8.7956136,166.13049 7.0046556,162.2545 c -1.790957,-3.87599 -2.996015,-7.44074 -2.67791,-7.92167 1.170654,-1.76984 4.361089,-1.27401 7.6136484,1.18324 2.874929,2.17197 3.875391,3.70204 7.17635,10.9753 4.18609,9.22348 4.624123,12.19791 2.862188,19.43501 -1.399493,5.74841 -0.80896,10.0637 2.278603,16.65063 3.469931,7.40278 7.019146,11.04454 22.71035,23.30279 l 13.086242,10.2232 -0.113374,4.71697 c -0.06236,2.59432 -0.02083,16.06645 0.0923,29.93804 0.25949,31.82163 0.207984,40.3123 -0.245803,40.52199 -0.198859,0.0919 -0.938112,-1.64782 -1.642801,-3.86599 z M 270.24678,162.99907 c -0.10842,-0.23462 -0.34199,-5.52007 -0.51906,-11.74542 -0.53044,-18.64907 2.45189,-38.94035 7.42251,-50.5015 2.95359,-6.86977 7.78527,-15.541919 8.51049,-15.275087 1.20354,0.442811 0.44236,3.164379 -2.31241,8.267955 -4.97174,9.210822 -6.63381,16.998982 -8.25789,38.694662 -1.28774,17.20272 -3.77227,32.87804 -4.84364,30.55939 z m -133.75541,28.37046 c -3.06717,-1.51594 -3.92764,-1.59714 -4.37473,-0.41283 -0.30611,0.81085 -2.23537,2.25001 -4.28725,3.19812 -6.58716,3.04369 -17.14931,-0.24275 -22.75939,-7.08163 -3.25206,-3.96437 -3.55016,-7.28258 -1.00773,-11.21742 1.64,-2.5382 2.73401,-3.22027 9.27896,-5.7851 4.08086,-1.5992 12.37593,-4.03489 18.43349,-5.41263 6.05755,-1.37774 15.44884,-3.81168 20.86952,-5.40876 9.6375,-2.83944 9.88349,-2.85858 11.10639,-0.86391 1.73901,2.83653 -0.31594,4.71398 -12.03279,10.99347 -5.26175,2.81996 -9.72308,5.612 -9.91407,6.20453 -0.191,0.59252 0.005,3.98136 0.43715,7.53075 1.2254,10.08168 0.38549,11.28764 -5.74955,8.25541 z m 105.92759,-67.61198 c -2.36142,-1.78236 -2.87979,-3.5388 -2.42381,-8.21277 0.7061,-7.23788 7.49236,-17.340998 15.74556,-23.441389 5.01198,-3.704631 7.24327,-3.826107 8.79007,-0.478536 1.16016,2.510851 -1.07949,6.482852 -9.09766,16.134515 -3.61335,4.34949 -7.66906,9.99309 -9.01269,12.54134 -2.32436,4.40822 -2.51864,4.57607 -4.00147,3.45684 z M 56.525642,190.32197 c -5.917183,-0.41334 -11.775319,-3.31623 -17.229238,-8.53761 -3.098956,-2.96683 -4.746521,-5.46024 -7.532591,-11.39979 -1.96134,-4.1813 -3.482965,-8.43702 -3.381417,-9.45715 0.16029,-1.6103 1.203067,-1.19372 7.91112,3.16043 4.249574,2.75836 9.74308,6.4933 12.2078,8.29988 4.77978,3.50344 16.4014,14.02057 17.05424,15.43343 0.71778,1.55345 -3.977346,2.85375 -9.029914,2.50081 z"
         id="path481" />
    </a>
  </g>
</svg>
